<svg width="229" height="235" viewBox="0 0 229 235" fill="none" xmlns="http://www.w3.org/2000/svg">
<path d="M221.78 0H7.22018C3.24908 0 0 3.17898 0 7.33611V227.664C0 231.699 3.24908 235 7.22018 235H221.78C225.751 235 229 231.699 229 227.664V7.33611C229 3.30125 225.751 0 221.78 0ZM198.555 196.608C197.713 197.953 196.269 198.809 194.704 198.809H160.769C159.085 198.809 157.52 197.83 156.798 196.241L137.544 156.87C136.221 154.303 133.573 152.591 130.685 152.591H72.0814C70.8781 152.591 69.9154 153.569 69.9154 154.792V194.407C69.9154 196.975 67.8697 198.931 65.463 198.931H38.628C36.1009 198.931 34.1755 196.852 34.1755 194.407V120.801C34.1755 118.234 36.2212 116.277 38.628 116.277H128.88C132.129 116.277 134.897 113.587 134.897 110.164V78.8632C134.897 75.5619 132.25 72.7497 128.88 72.7497H38.628C36.1009 72.7497 34.1755 70.6712 34.1755 68.2258V40.9599C34.1755 38.3923 36.2212 36.436 38.628 36.436H133.092C135.619 36.436 137.544 38.5146 137.544 40.9599V62.6015C137.544 65.9027 140.192 68.7149 143.561 68.7149H166.184C168.712 68.7149 170.637 70.7935 170.637 73.2388V115.788C170.637 118.356 168.591 120.312 166.184 120.312H143.561C140.312 120.312 137.544 123.002 137.544 126.426V142.076C137.544 146.355 140.914 149.779 145.126 149.779H174.969C176.654 149.779 178.218 150.757 178.94 152.347L198.555 192.328C199.277 193.796 199.157 195.385 198.314 196.73L198.555 196.608Z" fill="#1477FB"/>
</svg>
