<svg fill="none" height="211" viewBox="0 0 1518 211" width="1518" xmlns="http://www.w3.org/2000/svg"><path d="m73.9821 184.5-32.8253-57.144h-17.8535v57.144h-23.30342207v-142.8604h49.17532207c10.9626 0 20.1712 1.9467 27.7511 5.7773 7.5799 3.8305 13.2805 8.9797 17.0391 15.3849 3.7586 6.468 5.6379 13.6267 5.6379 21.6017 0 9.2938-2.6936 17.7715-8.081 25.3695s-13.719 12.748-24.9322 15.511l35.2689 59.216zm-50.6161-75.857h25.8092c8.7701 0 15.3477-2.198 19.7954-6.594 4.4477-4.3956 6.6402-10.2984 6.6402-17.6455s-2.1925-13.1871-6.5776-17.3944c-4.385-4.2073-11.0253-6.2796-19.858-6.2796h-25.8092z" fill="#1477fb"/><path d="m146.586 180.922c-7.643-3.328-13.656-8.101-18.041-14.255s-6.578-13.375-6.578-21.602h24.995c.564 6.154 2.944 11.241 7.267 15.197 4.322 3.956 10.336 5.966 18.166 5.966 7.831 0 14.346-1.947 18.856-5.84 4.51-3.894 6.765-8.917 6.765-15.134 0-4.773-1.378-8.729-4.197-11.743s-6.264-5.338-10.461-6.97c-4.197-1.633-9.96-3.454-17.352-5.338-9.272-2.449-16.852-4.961-22.677-7.473-5.826-2.511-10.775-6.468-14.847-11.805-4.072-5.3379-6.139-12.4966-6.139-21.3508 0-8.2262 2.067-15.3849 6.139-21.6017 4.072-6.154 9.835-10.8636 17.227-14.1918 7.392-3.2654 15.912-4.9609 25.621-4.9609 13.782 0 25.12 3.4538 33.953 10.3613s13.719 16.3897 14.659 28.4465h-25.809c-.439-5.2121-2.882-9.6706-7.392-13.3755-4.511-3.705-10.462-5.526-17.854-5.526-6.703 0-12.153 1.6954-16.412 5.1492-4.26 3.4538-6.327 8.3518-6.327 14.8198 0 4.3957 1.315 7.975 4.009 10.8009 2.693 2.8258 6.076 5.0236 10.148 6.6563s9.71 3.4537 16.788 5.3377c9.46 2.575 17.102 5.212 23.053 7.787 5.952 2.574 11.026 6.593 15.16 11.994 4.197 5.4 6.264 12.622 6.264 21.664 0 7.284-1.941 14.129-5.825 20.534-3.884 6.468-9.585 11.617-17.039 15.511-7.455 3.893-16.225 5.84-26.373 5.84-9.585 0-18.167-1.696-25.81-5.024z" fill="#1477fb"/><path d="m266.299 180.922c-7.643-3.328-13.657-8.101-18.042-14.255s-6.577-13.375-6.577-21.602h24.995c.563 6.154 2.944 11.241 7.266 15.197 4.323 3.956 10.336 5.966 18.167 5.966 7.83 0 14.345-1.947 18.856-5.84 4.51-3.894 6.765-8.917 6.765-15.134 0-4.773-1.378-8.729-4.197-11.743s-6.264-5.338-10.462-6.97c-4.197-1.633-9.96-3.454-17.352-5.338-9.271-2.449-16.851-4.961-22.677-7.473-5.826-2.511-10.775-6.468-14.846-11.805-4.072-5.3379-6.139-12.4966-6.139-21.3508 0-8.2262 2.067-15.3849 6.139-21.6017 4.071-6.154 9.835-10.8636 17.227-14.1918 7.392-3.2654 15.911-4.9609 25.621-4.9609 13.782 0 25.12 3.4538 33.953 10.3613s13.719 16.3897 14.658 28.4465h-25.809c-.438-5.2121-2.881-9.6706-7.392-13.3755-4.51-3.705-10.461-5.526-17.853-5.526-6.703 0-12.153 1.6954-16.413 5.1492s-6.327 8.3518-6.327 14.8198c0 4.3957 1.316 7.975 4.009 10.8009 2.694 2.8258 6.077 5.0236 10.149 6.6563 4.071 1.6327 9.709 3.4537 16.788 5.3377 9.459 2.575 17.102 5.212 23.053 7.787 5.951 2.574 11.025 6.593 15.16 11.994 4.197 5.4 6.264 12.622 6.264 21.664 0 7.284-1.942 14.129-5.826 20.534-3.884 6.468-9.584 11.617-17.039 15.511-7.454 3.893-16.225 5.84-26.373 5.84-9.584 0-18.166-1.696-25.809-5.024z" fill="#1477fb"/><path d="m375.737 49.9299c8.77-6.7191 19.983-10.1101 33.702-10.1101 9.397 0 17.478 1.6327 24.306 4.8353 6.828 3.2654 11.965 7.6611 15.473 13.1871 3.508 5.5888 5.199 11.8056 5.199 18.8387 0 8.0379-2.192 14.8826-6.64 20.5342-4.448 5.7149-9.71 9.4819-15.911 11.4289v.753c7.893 2.324 14.094 6.594 18.48 12.685 4.447 6.154 6.64 14.004 6.64 23.549 0 7.661-1.817 14.443-5.45 20.345-3.634 5.966-8.958 10.613-16.1 14.067-7.078 3.453-15.598 5.149-25.558 5.149-14.471 0-26.373-3.579-35.707-10.738s-14.283-17.52-14.972-30.958h22.113c.564 6.844 3.258 12.433 8.269 16.766 4.949 4.333 11.652 6.468 20.109 6.468s14.47-2.135 18.918-6.468 6.64-9.922 6.64-16.766c0-9.043-3.006-15.511-8.958-19.279-5.951-3.83-15.097-5.714-27.438-5.714h-5.199v-18.211h5.45c10.837-.125 19.106-1.8838 24.807-5.212 5.7-3.3909 8.519-8.6658 8.519-15.8873 0-6.2167-2.067-11.1776-6.201-14.8198-4.135-3.7049-10.023-5.526-17.666-5.526-7.642 0-13.343 1.8211-17.477 5.526-4.135 3.705-6.641 8.2263-7.455 13.6895h-22.301c.814-12.0568 5.575-21.4133 14.345-28.1325z" fill="#1477fb"/><rect fill="#1477fb" height="155.64" rx="14.3137" width="1029.5" x="488.476" y="35"/><g fill="#fff"><path d="m531.417 144.008v-62.3763h5.888c18.584 0 32.66 13.616 32.66 32.4763 0 18.952-13.248 29.9-31.464 29.9zm9.476-53.7283v45.0803c12.512.276 19.596-9.66 19.596-21.436 0-11.224-7.636-23.0923-19.596-23.6443z"/><path d="m624.772 80.8037c15.824 0 22.08 19.3203 22.08 31.9243 0 13.708-6.164 32.108-22.08 32.108s-22.08-18.4-22.08-32.108c0-12.604 6.256-31.9243 22.08-31.9243zm0 8.648c-11.04 0-12.604 15.7323-12.604 23.7363 0 7.82 1.748 23 12.604 23 10.764 0 12.604-15.18 12.604-23 0-8.004-1.656-23.7363-12.604-23.7363z"/><path d="m719.691 95.7077h-9.476c-.276-3.772-3.772-6.256-7.728-6.256-10.028 0-11.592 15.7323-11.592 23.0923 0 7.452 1.38 23.644 11.592 23.644 3.956 0 7.452-2.76 7.728-6.808h9.476c0 9.292-8.004 15.456-16.836 15.456-16.836 0-21.436-18.216-21.436-31.832 0-14.3523 4.6-32.2003 21.436-32.2003 8.832 0 16.836 5.98 16.836 14.904z"/><path d="m754.534 81.6317h9.476v40.8483c0 8.74 2.116 13.708 11.592 13.708s11.592-4.968 11.592-13.708v-40.8483h9.476v41.4923c0 13.524-6.532 21.712-21.068 21.712-14.628 0-21.068-8.188-21.068-21.712z"/><path d="m851.109 105.644 7.268-24.0123h14.628v62.3763h-9.476v-51.9803h-.184l-8.556 31.7403h-7.544l-8.556-31.7403h-.184v51.9803h-9.476v-62.3763h14.628l7.268 24.0123z"/><path d="m918.151 90.2797v16.8363h24.288v8.648h-24.288v19.596h28.98v8.648h-38.456v-62.3763h37.352v8.648z"/><path d="m1013.9 126.896v-45.2643h8.65v62.3763h-10.31l-22.262-47.1963h-.184v47.1963h-8.648v-62.3763h11.04l21.524 45.2643z"/><path d="m1081.95 90.2797v53.7283h-9.47v-53.7283h-16.84v-8.648h43.15v8.648z"/><path d="m1159.48 117.42-6.71-27.0483h-.19l-6.8 27.0483zm2.12 8.648h-18.03l-4.42 17.94h-9.57l17.02-62.3763h12.06l17.02 62.3763h-9.57z"/><path d="m1232.78 90.2797v53.7283h-9.47v-53.7283h-16.84v-8.648h43.15v8.648z"/><path d="m1308.2 90.2797v45.0803h11.22v8.648h-31.92v-8.648h11.22v-45.0803h-9.38v-8.648h28.15v8.648z"/><path d="m1378.92 80.8037c15.82 0 22.08 19.3203 22.08 31.9243 0 13.708-6.16 32.108-22.08 32.108s-22.08-18.4-22.08-32.108c0-12.604 6.26-31.9243 22.08-31.9243zm0 8.648c-11.04 0-12.6 15.7323-12.6 23.7363 0 7.82 1.74 23 12.6 23 10.76 0 12.6-15.18 12.6-23 0-8.004-1.65-23.7363-12.6-23.7363z"/><path d="m1466.39 126.896v-45.2643h8.65v62.3763h-10.31l-22.26-47.1963h-.19v47.1963h-8.64v-62.3763h11.04l21.52 45.2643z"/></g><path d="m531.417 144.008v-62.3763h5.888c18.584 0 32.66 13.616 32.66 32.4763 0 18.952-13.248 29.9-31.464 29.9zm9.476-53.7283v45.0803c12.512.276 19.596-9.66 19.596-21.436 0-11.224-7.636-23.0923-19.596-23.6443z" stroke="#fff" stroke-width=".72"/><path d="m624.772 80.8037c15.824 0 22.08 19.3203 22.08 31.9243 0 13.708-6.164 32.108-22.08 32.108s-22.08-18.4-22.08-32.108c0-12.604 6.256-31.9243 22.08-31.9243zm0 8.648c-11.04 0-12.604 15.7323-12.604 23.7363 0 7.82 1.748 23 12.604 23 10.764 0 12.604-15.18 12.604-23 0-8.004-1.656-23.7363-12.604-23.7363z" stroke="#fff" stroke-width=".72"/><path d="m719.691 95.7077h-9.476c-.276-3.772-3.772-6.256-7.728-6.256-10.028 0-11.592 15.7323-11.592 23.0923 0 7.452 1.38 23.644 11.592 23.644 3.956 0 7.452-2.76 7.728-6.808h9.476c0 9.292-8.004 15.456-16.836 15.456-16.836 0-21.436-18.216-21.436-31.832 0-14.3523 4.6-32.2003 21.436-32.2003 8.832 0 16.836 5.98 16.836 14.904z" stroke="#fff" stroke-width=".72"/><path d="m754.534 81.6317h9.476v40.8483c0 8.74 2.116 13.708 11.592 13.708s11.592-4.968 11.592-13.708v-40.8483h9.476v41.4923c0 13.524-6.532 21.712-21.068 21.712-14.628 0-21.068-8.188-21.068-21.712z" stroke="#fff" stroke-width=".72"/><path d="m851.109 105.644 7.268-24.0123h14.628v62.3763h-9.476v-51.9803h-.184l-8.556 31.7403h-7.544l-8.556-31.7403h-.184v51.9803h-9.476v-62.3763h14.628l7.268 24.0123z" stroke="#fff" stroke-width=".72"/><path d="m918.151 90.2797v16.8363h24.288v8.648h-24.288v19.596h28.98v8.648h-38.456v-62.3763h37.352v8.648z" stroke="#fff" stroke-width=".72"/><path d="m1013.9 126.896v-45.2643h8.65v62.3763h-10.31l-22.262-47.1963h-.184v47.1963h-8.648v-62.3763h11.04l21.524 45.2643z" stroke="#fff" stroke-width=".72"/><path d="m1081.95 90.2797v53.7283h-9.47v-53.7283h-16.84v-8.648h43.15v8.648z" stroke="#fff" stroke-width=".72"/><path d="m1159.48 117.42-6.71-27.0483h-.19l-6.8 27.0483zm2.12 8.648h-18.03l-4.42 17.94h-9.57l17.02-62.3763h12.06l17.02 62.3763h-9.57z" stroke="#fff" stroke-width=".72"/><path d="m1232.78 90.2797v53.7283h-9.47v-53.7283h-16.84v-8.648h43.15v8.648z" stroke="#fff" stroke-width=".72"/><path d="m1308.2 90.2797v45.0803h11.22v8.648h-31.92v-8.648h11.22v-45.0803h-9.38v-8.648h28.15v8.648z" stroke="#fff" stroke-width=".72"/><path d="m1378.92 80.8037c15.82 0 22.08 19.3203 22.08 31.9243 0 13.708-6.16 32.108-22.08 32.108s-22.08-18.4-22.08-32.108c0-12.604 6.26-31.9243 22.08-31.9243zm0 8.648c-11.04 0-12.6 15.7323-12.6 23.7363 0 7.82 1.74 23 12.6 23 10.76 0 12.6-15.18 12.6-23 0-8.004-1.65-23.7363-12.6-23.7363z" stroke="#fff" stroke-width=".72"/><path d="m1466.39 126.896v-45.2643h8.65v62.3763h-10.31l-22.26-47.1963h-.19v47.1963h-8.64v-62.3763h11.04l21.52 45.2643z" stroke="#fff" stroke-width=".72"/></svg>